# xmcd
#
# Track frame offsets: 
#        150
#        13299
#        25653
#        36685
#        54375
#        86028
#        104046
#        125216
#        150590
#        185791
#        202427
#        222895
#        247938
#        269060
#        294106
#        317928
#        339700
#
# Disc length: 4651 seconds
#
# Revision: 0
# Processed by: cddbd v1.5.2PL0 Copyright (c) Steve Scherf et al.
# Submitted via: ExactAudioCopy v0.99pb5
#
DISCID=15122911
DTITLE=Various Artist - Chris Barber - Memories Of My Trip - Disc 1
DYEAR=2011
DGENRE=Blues
TTITLE0=Brownie McGhee - Memories Of My Trip
TTITLE1=Ottilie Patterson and Sonny Terry and Brownie McGhee and Dick Graham
TTITLE1=+ Eddie Monty and Pat and Chris - When Things Go Wrong
TTITLE2=Ottilie Patterson and Sonny Terry and Brownie McGhee and Dick Graham
TTITLE2=+ Eddie Monty and Pat and Chris - Do Lord, Remember Me
TTITLE3=Eric Clapton and Chris Barber and Chris Stainton and Dave Bronze and H
TTITLE3=enry Spinetti - Weeping Willow
TTITLE4=The Muddy Waters Blues Band and Chris Barber - Kansas City
TTITLE5=James Cotton and Alexis Korner and Chris Barber and Keith Scott - Lo
TTITLE5=ve Me Or Leave Me
TTITLE6=Rory Gallagher and Chris Barber - Can't Be Satisfied
TTITLE7=Lonnie Donegan and The Chris Barber Jazz and Blues Band - Diggin' 
TTITLE7=My Potatoes
TTITLE8=Jeff Healey and His Jazz Wizards and Chris Barber - Goin' Up The R
TTITLE8=iver
TTITLE9=Van Morrison and The Chris Barber Skiffle Group - How Long Blues
TTITLE10=Van Morrison and Chris Barber Jazz and Blues Band - Goin' Home
TTITLE11=Van Morrison and Chris Barbers Jazz Band and Dr John - Oh Didn't 
TTITLE11=He Ramble
TTITLE12=Ottilie Paterson and Chris Barbers Jazz Band - Lonesome Road
TTITLE13=Paul Jones and Chris Barber Jazz and Blues Band - I'll Be Rested
TTITLE14=Andy Fairweather Low and Chris Barber Jazz and Blues Band - Preci
TTITLE14=ous Lord, Take My Hand
TTITLE15=Alex Bradford and Chris Barbers Jazz Band and Singers - Couldn't 
TTITLE15=Keep It To Myself
TTITLE16=John Slaughter's Last Blues - Another Sad One
EXTD=
EXTT0=
EXTT1=
EXTT2=
EXTT3=
EXTT4=
EXTT5=
EXTT6=
EXTT7=
EXTT8=
EXTT9=
EXTT10=
EXTT11=
EXTT12=
EXTT13=
EXTT14=
EXTT15=
EXTT16=
PLAYORDER=
